<svg width="64" height="64" viewBox="0 0 64 64" fill="none" xmlns="http://www.w3.org/2000/svg">
<g id="mdi:image-plus-outline">
<path id="Vector" d="M34.6667 50.6667C34.6667 52.5333 35.0133 54.32 35.6 56H13.3333C11.9188 56 10.5623 55.4381 9.5621 54.4379C8.5619 53.4377 8 52.0812 8 50.6667V13.3333C8 10.4 10.4 8 13.3333 8H50.6667C52.0812 8 53.4377 8.5619 54.4379 9.5621C55.4381 10.5623 56 11.9188 56 13.3333V35.6C54.32 35.0133 52.5333 34.6667 50.6667 34.6667V13.3333H13.3333V50.6667H34.6667ZM37.2267 32.7733L29.8933 42.2133L24.6667 35.92L17.3333 45.3333H35.6C36.6667 42.3467 38.5867 39.76 41.0667 37.8933L37.2267 32.7733ZM53.3333 48V40H48V48H40V53.3333H48V61.3333H53.3333V53.3333H61.3333V48H53.3333Z" fill="black" fill-opacity="0.56"/>
</g>
</svg>
